<?xml version="1.0" encoding="iso-8859-1"?>
<!-- Generator: Adobe Illustrator 18.1.1, SVG Export Plug-In . SVG Version: 6.00 Build 0)  -->
<svg version="1.1" id="Capa_1" xmlns="http://www.w3.org/2000/svg" xmlns:xlink="http://www.w3.org/1999/xlink" x="0px" y="0px"
	 viewBox="0 0 612 612" style="enable-background:new 0 0 612 612;" xml:space="preserve">
<g>
	<g>
		<path d="M589.398,172.6c7.233-7.524,9.273-18.628,5.193-28.224c-4.09-9.595-13.508-15.829-23.936-15.829H184.298l-44.157-46.134
			c0.676-3.143,1.082-6.39,1.082-9.751c0-25.351-20.564-45.905-45.915-45.905c-2.643,0-5.193,0.354-7.712,0.781L68.938,8.025
			C58.999-2.351,42.535-2.715,32.149,7.223c-10.376,9.939-10.74,26.402-0.801,36.778l18.941,19.794
			c-0.562,2.872-0.895,5.828-0.895,8.867c0,25.351,20.564,45.895,45.915,45.895c2.31,0,4.517-0.354,6.744-0.676l10.209,10.667
			H41.349c-10.428,0-19.856,6.234-23.936,15.829c-4.09,9.595-2.04,20.71,5.183,28.224l257.373,267.54v119.825H166.804
			c-14.372,0-26.017,11.645-26.017,26.017S152.432,612,166.804,612h278.385c14.372,0,26.017-11.645,26.017-26.017
			s-11.645-26.017-26.017-26.017H332.014V440.141L589.398,172.6z M145.959,225.769l-43.47-45.187h59.59l43.262,45.187H145.959z
			 M509.515,180.582l-43.48,45.187H277.357l-43.262-45.187H509.515L509.515,180.582z M282.727,353.139
			c-11.031-4.121-16.672-16.443-12.53-27.474c4.111-11.063,16.422-16.682,27.474-12.561c11.063,4.111,16.682,16.422,12.54,27.464
			C306.111,351.63,293.79,357.26,282.727,353.139z M322.794,380.53c-2.289,6.203-9.21,9.356-15.413,7.056
			c-6.203-2.31-9.345-9.231-7.056-15.423c2.31-6.203,9.231-9.366,15.433-7.056C321.961,367.407,325.125,374.328,322.794,380.53z
			 M329.777,325.072c-21.553-8.034-32.542-32.053-24.498-53.627c8.055-21.553,32.064-32.522,53.616-24.488
			c21.553,8.045,32.542,32.053,24.498,53.616C375.338,322.147,351.361,333.106,329.777,325.072z"/>
	</g>
	<g>
	</g>
	<g>
	</g>
	<g>
	</g>
	<g>
	</g>
	<g>
	</g>
	<g>
	</g>
	<g>
	</g>
	<g>
	</g>
	<g>
	</g>
	<g>
	</g>
	<g>
	</g>
	<g>
	</g>
	<g>
	</g>
	<g>
	</g>
	<g>
	</g>
</g>
<g>
</g>
<g>
</g>
<g>
</g>
<g>
</g>
<g>
</g>
<g>
</g>
<g>
</g>
<g>
</g>
<g>
</g>
<g>
</g>
<g>
</g>
<g>
</g>
<g>
</g>
<g>
</g>
<g>
</g>
</svg>
