<?xml version="1.0" encoding="iso-8859-1"?>
<!-- Generator: Adobe Illustrator 19.0.0, SVG Export Plug-In . SVG Version: 6.00 Build 0)  -->
<svg version="1.1" id="Layer_1" xmlns="http://www.w3.org/2000/svg" xmlns:xlink="http://www.w3.org/1999/xlink" x="0px" y="0px"
	 viewBox="0 0 511.998 511.998" style="enable-background:new 0 0 511.998 511.998;" xml:space="preserve">
<path style="fill:#FFCA66;" d="M350.366,19.07H161.634c-41.331,0-74.836,33.505-74.836,74.836v179.241h338.403V93.905
	C425.202,52.575,391.697,19.07,350.366,19.07z"/>
<g>
	<path style="fill:#66E6FF;" d="M248.265,70.633h-86.631c-12.832,0-23.271,10.44-23.271,23.271v127.677h109.903V70.633H248.265z"/>
	<path style="fill:#66E6FF;" d="M263.735,70.633h86.631c12.832,0,23.271,10.44,23.271,23.271v127.677H263.735V70.633z"/>
</g>
<g>
	<path style="opacity:0.15;fill:#293133;enable-background:new    ;" d="M361.017,195.597H164.85V93.905
		c0-12.832,10.44-23.272,23.272-23.272h-26.488c-12.832,0-23.271,10.44-23.271,23.272v102.567
		c-19.854,2.707-37.739,11.687-51.564,24.896v51.779h338.403v-51.778C408.501,205.411,385.884,195.597,361.017,195.597z"/>
	<path style="fill:#293133;" d="M86.798,190.173H57.268v-33.756c0-8.654-7.015-15.669-15.669-15.669H23.404
		c-8.654,0-15.669,7.015-15.669,15.669v98.65h49.533v-49.426h29.531c4.272,0,7.735-3.463,7.735-7.735S91.07,190.173,86.798,190.173z
		"/>
</g>
<path style="fill:#1C2223;" d="M40.586,140.748H23.404c-8.654,0-15.669,7.015-15.669,15.669v98.65h17.181v-98.65
	C24.916,147.763,31.932,140.748,40.586,140.748z"/>
<path style="fill:#293133;" d="M488.597,140.748h-18.195c-8.654,0-15.669,7.015-15.669,15.669v33.756h-29.531
	c-4.272,0-7.735,3.463-7.735,7.735s3.462,7.735,7.735,7.735h29.531v49.426h49.533v-98.65
	C504.265,147.763,497.25,140.748,488.597,140.748z"/>
<path style="fill:#1C2223;" d="M487.587,140.748h-17.181c-8.654,0-15.669,7.015-15.669,15.669v98.65h17.181v-98.65
	C471.918,147.763,478.933,140.748,487.587,140.748z"/>
<g>
	<path style="fill:#293133;" d="M90.595,394.492V465.7c0,15.038,12.191,27.229,27.229,27.229l0,0
		c15.038,0,27.229-12.191,27.229-27.229v-71.207H90.595z"/>
	<path style="fill:#293133;" d="M421.404,394.492V465.7c0,15.038-12.191,27.229-27.229,27.229l0,0
		c-15.038,0-27.229-12.191-27.229-27.229v-71.207H421.404z"/>
</g>
<g>
	<path style="fill:#1C2223;" d="M110.641,465.7v-71.207H90.595V465.7c0,15.039,12.191,27.229,27.229,27.229l0,0
		c3.54,0,6.92-0.683,10.022-1.913C117.771,487.024,110.641,477.197,110.641,465.7z"/>
	<path style="fill:#1C2223;" d="M386.99,465.7v-71.207h-20.045V465.7c0,15.039,12.191,27.229,27.229,27.229l0,0
		c3.54,0,6.92-0.683,10.022-1.913C394.12,487.024,386.99,477.197,386.99,465.7z"/>
</g>
<path style="fill:#667C80;" d="M256,249.535c-4.272,0-7.735-3.463-7.735-7.735V70.633c0-4.272,3.462-7.735,7.735-7.735
	c4.272,0,7.735,3.463,7.735,7.735V241.8C263.735,246.072,260.272,249.535,256,249.535z"/>
<path style="fill:#FFCA66;" d="M361.016,216.222H150.984c-39.959,0-72.351,32.392-72.351,72.351v99.448h354.735v-99.448
	C433.367,248.615,400.975,216.222,361.016,216.222z"/>
<rect x="157.296" y="257.345" style="fill:#85A1A6;" width="197.404" height="130.686"/>
<g>
	<path style="fill:#CCF7FF;" d="M242.041,301.608h-59.295c-4.272,0-7.735-3.463-7.735-7.735s3.462-7.735,7.735-7.735h59.295
		c4.272,0,7.735,3.463,7.735,7.735C249.776,298.144,246.313,301.608,242.041,301.608z"/>
	<path style="fill:#CCF7FF;" d="M242.041,330.415h-59.295c-4.272,0-7.735-3.463-7.735-7.735s3.462-7.735,7.735-7.735h59.295
		c4.272,0,7.735,3.463,7.735,7.735S246.313,330.415,242.041,330.415z"/>
	<path style="fill:#CCF7FF;" d="M242.041,359.223h-59.295c-4.272,0-7.735-3.463-7.735-7.735s3.462-7.735,7.735-7.735h59.295
		c4.272,0,7.735,3.463,7.735,7.735S246.313,359.223,242.041,359.223z"/>
	<path style="fill:#CCF7FF;" d="M329.254,301.608h-59.295c-4.272,0-7.735-3.463-7.735-7.735s3.462-7.735,7.735-7.735h59.295
		c4.272,0,7.735,3.463,7.735,7.735C336.988,298.144,333.526,301.608,329.254,301.608z"/>
	<path style="fill:#CCF7FF;" d="M329.254,330.415h-59.295c-4.272,0-7.735-3.463-7.735-7.735s3.462-7.735,7.735-7.735h59.295
		c4.272,0,7.735,3.463,7.735,7.735S333.526,330.415,329.254,330.415z"/>
	<path style="fill:#CCF7FF;" d="M329.254,359.223h-59.295c-4.272,0-7.735-3.463-7.735-7.735s3.462-7.735,7.735-7.735h59.295
		c4.272,0,7.735,3.463,7.735,7.735C336.988,355.76,333.526,359.223,329.254,359.223z"/>
</g>
<g>
	<path style="fill:#FF8766;" d="M123.223,336.348h-10.796c-7.388,0-13.378,5.99-13.378,13.378c0,7.388,5.99,13.378,13.378,13.378
		h10.796c7.388,0,13.378-5.99,13.378-13.378C136.601,342.338,130.612,336.348,123.223,336.348z"/>
	<path style="fill:#FF8766;" d="M388.777,336.348h10.796c7.388,0,13.378,5.99,13.378,13.378c0,7.388-5.99,13.378-13.378,13.378
		h-10.796c-7.388,0-13.378-5.99-13.378-13.378C375.399,342.338,381.388,336.348,388.777,336.348z"/>
</g>
<rect x="78.637" y="367.392" style="opacity:0.15;fill:#333333;enable-background:new    ;" width="354.732" height="20.628"/>
<path style="fill:#667C80;" d="M69.171,388.021v16.364c0,12.676,10.276,22.951,22.951,22.951h327.755
	c12.676,0,22.951-10.276,22.951-22.951v-16.364H69.171z"/>
<g>
	<path style="fill:#26150C;" d="M182.746,301.608h59.295c4.272,0,7.735-3.462,7.735-7.735c0-4.272-3.463-7.735-7.735-7.735h-59.295
		c-4.272,0-7.735,3.462-7.735,7.735C175.011,298.145,178.474,301.608,182.746,301.608z"/>
	<path style="fill:#26150C;" d="M182.746,330.414h59.295c4.272,0,7.735-3.462,7.735-7.735c0-4.272-3.463-7.735-7.735-7.735h-59.295
		c-4.272,0-7.735,3.462-7.735,7.735C175.011,326.952,178.474,330.414,182.746,330.414z"/>
	<path style="fill:#26150C;" d="M182.746,359.223h59.295c4.272,0,7.735-3.462,7.735-7.735c0-4.273-3.463-7.735-7.735-7.735h-59.295
		c-4.272,0-7.735,3.462-7.735,7.735C175.011,355.761,178.474,359.223,182.746,359.223z"/>
	<path style="fill:#26150C;" d="M269.958,301.608h59.295c4.272,0,7.735-3.462,7.735-7.735c0-4.272-3.463-7.735-7.735-7.735h-59.295
		c-4.272,0-7.735,3.462-7.735,7.735C262.224,298.145,265.686,301.608,269.958,301.608z"/>
	<path style="fill:#26150C;" d="M269.958,330.414h59.295c4.272,0,7.735-3.462,7.735-7.735c0-4.272-3.463-7.735-7.735-7.735h-59.295
		c-4.272,0-7.735,3.462-7.735,7.735C262.224,326.952,265.686,330.414,269.958,330.414z"/>
	<path style="fill:#26150C;" d="M269.958,359.223h59.295c4.272,0,7.735-3.462,7.735-7.735c0-4.273-3.463-7.735-7.735-7.735h-59.295
		c-4.272,0-7.735,3.462-7.735,7.735C262.223,355.761,265.686,359.223,269.958,359.223z"/>
	<path style="fill:#26150C;" d="M123.223,328.615h-10.796c-11.641,0-21.113,9.471-21.113,21.112
		c0,11.643,9.471,21.113,21.113,21.113h10.796c11.641,0,21.113-9.471,21.113-21.113S134.865,328.615,123.223,328.615z
		 M123.223,355.37h-10.796c-3.112,0-5.643-2.532-5.643-5.644s2.532-5.643,5.643-5.643h10.796c3.112,0,5.643,2.531,5.643,5.643
		C128.867,352.838,126.335,355.37,123.223,355.37z"/>
	<path style="fill:#26150C;" d="M388.777,370.839h10.796c11.642,0,21.113-9.471,21.113-21.113c0-11.642-9.471-21.112-21.113-21.112
		h-10.796c-11.641,0-21.113,9.471-21.113,21.112C367.664,361.368,377.135,370.839,388.777,370.839z M388.777,344.083h10.796
		c3.112,0,5.643,2.531,5.643,5.643s-2.532,5.644-5.643,5.644h-10.796c-3.112,0-5.643-2.532-5.643-5.644
		C383.133,346.614,385.665,344.083,388.777,344.083z"/>
	<path style="fill:#26150C;" d="M488.597,133.013h-18.195c-12.905,0-23.404,10.499-23.404,23.403v33.756h-14.061V93.905
		c0-45.53-37.041-82.57-82.571-82.57H161.634c-45.53,0-82.571,37.041-82.571,82.57v96.268H65.003v-33.756
		c0-12.904-10.499-23.403-23.404-23.403H23.404C10.499,133.013,0,143.513,0,156.417v98.65c0,4.272,3.462,7.735,7.735,7.735h49.533
		c4.272,0,7.735-3.462,7.735-7.735v-49.426h14.061v47.742c-5.222,10.629-8.165,22.57-8.165,35.19v91.713h-1.727
		c-4.272,0-7.735,3.462-7.735,7.735v16.364c0,13.694,9.017,25.318,21.424,29.255v32.058c0,19.28,15.684,34.964,34.964,34.964
		s34.964-15.684,34.964-34.964v-30.627H359.21v30.627c0,19.28,15.684,34.964,34.964,34.964s34.964-15.684,34.964-34.964V433.64
		c12.407-3.937,21.424-15.561,21.424-29.255v-16.364c0-4.272-3.463-7.735-7.735-7.735h-1.727v-91.713
		c0-12.62-2.944-24.562-8.167-35.19v-47.742h14.061v49.426c0,4.272,3.463,7.735,7.735,7.735h49.533c4.272,0,7.735-3.462,7.735-7.735
		v-98.65C512,143.513,501.501,133.013,488.597,133.013z M49.533,190.172h-4.465c-4.272,0-7.735,3.463-7.735,7.735
		c0,4.272,3.463,7.735,7.735,7.735h4.465v41.691H15.469v-90.915c0-4.375,3.56-7.935,7.935-7.935h18.195
		c4.375,0,7.935,3.56,7.935,7.935V190.172z M94.533,93.905c0-36.999,30.102-67.101,67.101-67.101h188.731
		c37,0,67.101,30.102,67.101,67.101v137.839c-9.982-9.941-22.425-17.056-36.094-20.632V93.905c0-17.098-13.909-31.006-31.007-31.006
		H161.634c-17.097,0-31.006,13.909-31.006,31.006v117.207c-13.67,3.576-26.111,10.692-36.095,20.632
		C94.533,231.744,94.533,93.905,94.533,93.905z M365.903,93.905v114.736c-0.106-0.006-0.212-0.009-0.318-0.015
		c-0.166-0.01-0.33-0.027-0.496-0.035c-0.219-0.011-0.441-0.01-0.66-0.019c-1.141-0.05-2.281-0.085-3.413-0.085h-97.281V78.367
		h86.632C358.934,78.367,365.903,85.337,365.903,93.905z M248.265,78.367v130.12h-97.281c-1.132,0-2.27,0.034-3.412,0.085
		c-0.22,0.01-0.441,0.008-0.661,0.019c-0.166,0.009-0.331,0.027-0.497,0.035c-0.105,0.006-0.21,0.009-0.317,0.015V93.905
		c0-8.567,6.97-15.537,15.537-15.537H248.265z M86.367,288.573c0-11.065,2.799-21.485,7.721-30.6
		c0.061-0.113,0.122-0.225,0.184-0.338c9.27-16.926,25.901-29.258,45.554-32.694c0.852-0.148,1.704-0.279,2.556-0.394
		c0.136-0.018,0.273-0.034,0.409-0.053c0.79-0.102,1.581-0.19,2.369-0.262c0.329-0.029,0.659-0.05,0.989-0.075
		c0.605-0.046,1.209-0.092,1.812-0.121c0.021-0.001,0.044-0.002,0.066-0.003c0.98-0.044,1.965-0.075,2.957-0.075h210.032
		c0.992,0,1.977,0.03,2.957,0.075c0.021,0.001,0.044,0.002,0.066,0.003c0.602,0.029,1.207,0.075,1.81,0.121
		c0.33,0.025,0.661,0.046,0.99,0.075c0.788,0.073,1.577,0.16,2.367,0.262c0.137,0.017,0.276,0.034,0.412,0.053
		c0.85,0.115,1.702,0.246,2.553,0.394c19.65,3.436,36.281,15.764,45.552,32.688c0.064,0.118,0.129,0.236,0.192,0.354
		c4.919,9.113,7.717,19.531,7.717,30.592v91.713h-63.198V257.34c0-4.272-3.463-7.735-7.735-7.735h-197.4
		c-4.272,0-7.735,3.462-7.735,7.735v122.947H86.367V288.573z M346.966,265.073v115.213H165.034V265.073H346.966z M137.32,465.7
		c0,10.75-8.745,19.496-19.496,19.496S98.329,476.45,98.329,465.7v-30.627h38.99V465.7H137.32z M413.67,465.7
		c0,10.75-8.745,19.496-19.496,19.496c-10.749,0-19.496-8.745-19.496-19.496v-30.627h38.99V465.7H413.67z M433.367,395.756h1.727
		v8.629c0,8.391-6.826,15.217-15.217,15.217h-52.933H145.055H92.122c-8.391,0-15.217-6.826-15.217-15.217v-8.629h1.727h78.666H354.7
		H433.367z M496.53,247.332h-34.064v-41.691h4.465c4.272,0,7.735-3.462,7.735-7.735c0-4.272-3.463-7.735-7.735-7.735h-4.465v-33.756
		c0-4.375,3.56-7.935,7.935-7.935h18.196c4.375,0,7.935,3.56,7.935,7.935v90.917H496.53z"/>
</g>
<g>
</g>
<g>
</g>
<g>
</g>
<g>
</g>
<g>
</g>
<g>
</g>
<g>
</g>
<g>
</g>
<g>
</g>
<g>
</g>
<g>
</g>
<g>
</g>
<g>
</g>
<g>
</g>
<g>
</g>
</svg>
